<?xml version="1.0" encoding="UTF-8"?>
<svg version="1.1" viewBox="0 0 2048 1804" width="219" height="193" xmlns="http://www.w3.org/2000/svg">
<path transform="translate(1378,454)" d="m0 0h13l4 3v6l-7 15v68l-2 8-3 8 5-8 5-10 12-16 11-12 11-11 16-11 14-5 26-6 18-1 15 2 8 4 5 6v8l-7 16-10 15-9 12-11 12-10 9-19 12-18 8-14 4-31 6-17 5-21 11-17 12-16 13-11 11-9 11-7 7-10 13-14 18-8 13-15 27-8 16-6 15-8 21-10 25-5 14-6 18-12 48-10 44-6 31-4 35-4 34-3 22-1 17-1 86v125l-1 8 52-6 28-2 35-1h61l31 1 22 2 64 8 35 6 38 9 35 10 36 12 30 11 39 15 26 11 30 14 40 20 30 16 22 12 28 16 28 17 18 11 21 13 9 8 1 5-6 3h-14l-38-7-56-9-74-10-77-8-76-5-44-2h-113l-36 2-63 6-80 11-65 11-92 18-67 13-58 12-66 14-37 7-43 7-44 5-49 4-18 1-48 1h-34l-52-1-33-2-52-5-45-5-66-10-57-11-44-10-36-9-36-11-45-15-41-14-40-13-17-5-6-4-1-5 3-3 23-2 174-2 123-7 54-5 84-9 36-5 62-12 86-19 56-12 71-15 48-10 5-2v-30l-2-43-3-22-4-46-3-48-3-24-3-23-4-38-2-6-10 5-7 3-11 2-14 1h-14l-13-4-13-7-12-11-11-15-9-16-2-6v-8l5-3 10-1 6-1 4 3 5 2 2-2 20-2 14 1 12 2 13 9 6 5 7 10 8 12-4-16-4-15-4-23-15-36-9-24-10-25-5-8-7 6-9 7-12 6-7 2h-26l-27-2-10-5-10-8-18-18-6-8v-2l23-5 22-8 13-5 19-4 14 1 9 2 2 1-11-14-9-8-11-7 1 2v6l-5 7-15 12-19 9-18 4-14 2h-8l-18-8-16-10-10-8-7-6-1-4 6-4 16-5 23-13 10-5 12-4h2v-2l-6-1-16-8-12-8-10-9-10-12-15-23-3-9 5-6 8-3 11-1 25 2 15 4 10 5 12 10 11 14 9 15-2-11-1-7v-16l1-17-5-16 2-7 2-1 12 3 20 10 12 9 9 9 7 11 3 9 3 19v19l-3 22 1 9 18 21 4-25 5-22 8-24 1-17 2-3 5 2 10 7 10 9 10 13 6 12 4 16v18l-3 17-5 13-9 17-8 11-3 1 6 11 6 14 7 15 3-17 5-10 14-20 8-14 3-9 3-11 1-2 5 1 7 7 12 18 8 18 3 10 1 12-6 20-5 12-8 13-9 10-5 4-5 2-11 1-5-5-5-7 10 27 8 30 10 40 5 15 6 45 3 22 3 29 3 23 4 66v15l2 67 43-10 48-11 40-8 62-10 5-2v-147l4-36 3-22 4-53 5-30 6-51 6-37 5-21 6-24 6-19 4-19 7-22-3-3-11-7-14-12-9-9-8-11-9-17-4-14-3-18v-18l6-28 5-13 7-10 7-8 6-3 5 1 2 5 1 16 6 9 10 9 10 12 9 13 8 13 4 10 3 18 8-20 9-17 13-21 3-5-1 1h-3v-2l-5-2-10-6-8-9-8-15-5-13-2-9-1-9v-22l2-13 4-13 7-14 8-10 9-10 6-7 13-9 4-2h5l2 2 2 11 1 16 3 10 11 27 5 17 1 9v19l-1 10 15-14 11-9 17-14 8-7 10-7-10 2h-11l-5-2-2-3-2-11-2-23v-14l2-19 4-14 6-12 8-11 9-11 12-10 14-10 14-7zm2 111-4 5 1 2 4-5zm-5 7m-1 1m-1 1m-24 18m-3 2m-2 1m-2 1m-2 1m-2 1m-97 89m-1 1m-376 271m1 2 1 2z" fill="#D8A055"/>
<path transform="translate(1049,113)" d="m0 0 5 3 7 9 10 23 12 36 10 35 8 32 9 49 3 24 2 30 1 24 1 10 4 4 48 11 25 7 36 12 20 7 17 8 8 7 1 3-4 6-9 10-16 16-7 8-12 12-7 8-14 14-10 8-5 1-15-4-45-14-29-7-22-4-28-3-16-1-35-1h-22l-34 1-31 3-33 6-26 7-29 10-25 11-28 13-22 12-19 12-12 8-18 13-14 11-11 9-13 12-8 7-31 31-9 11-12 16-14 19-10 15-12 19-11 19-8 15-13 30-11 29-8 25-6 21-7 34-5 34-2 25v67l3 25 7 41 9 35 10 29 14 33 15 33 13 24 18 27 14 19 10 13 11 12 10 11 7 14v4l-13 4-52 10-48 9h-9l-6-7-13-19-11-17-11-18-7-9-6-4-26 1-21 3-25 6-26 8-43 15-22 8-24 10-33 14-21 8-10 2-2-1 1-7 11-16 9-11 12-14 15-16 42-42 8-7 15-13 14-11 13-10 12-9 17-12 18-12 16-10 2-2-1-9-6-21-7-26-8-44-2-17-3-54-2-8-5-5-17-10-26-12-23-9-31-9-29-7-33-6-41-6-49-4-11-2-3-3 1-4 9-8 16-8 21-8 28-9 32-8 32-5 27-4 13-1 40-1h57l2-1 12-45 9-31 10-28 15-35 12-25 3-8v-13l-5-12-11-18-10-14-13-16-12-14-12-13-17-17-8-7-13-11-10-8-18-14-17-12-15-11-19-13-10-9-4-4 1-5 4-1 24 1 25 3 42 8 27 8 33 12 28 12 16 8 23 12 25 15 18 12 8 5 23-23 7-8 16-16 8-7 7-7 14-11 16-13 13-10 19-13 11-8 8-7 3-6v-35l-4-28-9-36-12-38-17-47-12-29-13-30-10-25v-5l6-1 10 4 11 7 13 11 11 9 15 14 18 18 7 8 10 11 7 8 11 14 12 17 15 23 15 25 9 16 18 36 2 3 9-2 20-6 42-11 37-8 52-8 27-2 7-3 9-17 13-36 7-23 7-28 8-44 9-63 2-21 1-24 3-6z" fill="#9CC84A"/>
<path transform="translate(1378,454)" d="m0 0h13l4 3v6l-7 15v68l-2 8-3 8 5-8 5-10 12-16 11-12 11-11 16-11 14-5 26-6 18-1 15 2 8 4 5 6v8l-7 16-10 15-9 12-11 12-10 9-19 12-18 8-14 4-31 6-17 5-21 11-17 12-16 13-11 11-9 11-7 7-10 13-14 18-8 13-15 27-8 16-6 15-8 21-10 25-5 14-6 18-12 48-10 44-6 31-4 35-4 34-3 22-1 17-1 86v125l-1 8 52-6 28-2 35-1h61l31 1 22 2 64 8 35 6 38 9 35 10 36 12 30 11 39 15 26 11 30 14 40 20 30 16 22 12 28 16 28 17 18 11 21 13 9 8 1 5-6 3h-14l-38-7-56-9-74-10-77-8-76-5-44-2-101-1v-1l11-1 56-2h81l41 2 14 1h14l12 2 34 3 24 1 12 3 15 2 22 3h12l12 3 17 2 7 2 10 1h19l9-3-2-4-1-6-5-5v-2l-3-1v-2l-6-2-5-4-6-3-5-3v-2l-6-2-9-5v-2l-5-2-9-5-22-12v-2l-6-1-9-5-1-2-4-2-8-3-10-5-7-3-8-4-14-6-8-4v-2l-3 1-5-3-11-4-5-3-8-3-10-4-31-10-3-1-5-1-3-2-10-3-6-3-12-3-7-2-16-6-13-4-7-1-9-3-19-4-7-2-16-4-20-4-11-3-28-5-25-3-8-2-21-3-6-2-14-3-13-1h-55l-26 1-27 3h-10l-33 4h-35l-7-5-1-2-1-27v-75l-1-18-1-11 1-24 1-5 1-29 1-19 3-17 1-10-1-9v-13l3-16 2-12 1-9 1-8 2-4-1-10 2-14 3-9 6-28 1-1 2-12 1-10 1-8 2-7 3-9 1-2v-7l3-13 3-5 1-5 4-11 6-14 2-11 2-4h2l2-5 6-18 6-11 2-10 6-12 2-8-3-3-5 3-5 8-3 1-6 8-3 3-2 6-3 2-7 21-6 19-5 11-1 7h-2v5h-2v6l-4 8h-2l-1 3h-2v8 3h2l-1 5-6 17-2 6-4 17-3 20-4 13-2 12-1 3-4 33-2 13-3 26-4 22-3 13-3 11-2 22v20l-2 16-1 14v31l-4 52-2 6-1 24v29l-1 14-4 7-16 5-10 4-12 1-27 4-10 4-12 1-7 2-10 2-7 2-10 3-12 2-17 3-6 2-13 3-7 1-16 2-12-2-1-1v-14l-2-45-3-47-1-3-4-2-2-3-4-13 1-7v-12l-3-12v-21l-4-8-2-2-1-4-2 3v41l5 21 1 14-2 21-2 10-3 16v68l-2 10-2-1v-30l-2-43-3-22-4-46-3-48-3-24-3-23-4-38-2-6-10 5-7 3-11 2-14 1h-14l-13-4-13-7-12-11-11-15-9-16-2-6v-8l5-3 10-1 6-1 4 3 5 2 2-2 20-2 14 1 12 2 13 9 6 5 7 10 8 12-4-16-4-15-4-23-15-36-9-24-10-25-5-8-7 6-9 7-12 6-7 2h-26l-27-2-10-5-10-8-18-18-6-8v-2l23-5 22-8 13-5 19-4 14 1 9 2 2 1-11-14-9-8-11-7 1 2v6l-5 7-15 12-19 9-18 4-14 2h-8l-18-8-16-10-10-8-7-6-1-4 6-4 16-5 23-13 10-5 12-4h2v-2l-6-1-16-8-12-8-10-9-10-12-15-23-3-9 5-6 8-3 11-1 25 2 15 4 10 5 12 10 11 14 9 15-2-11-1-7v-16l1-17-5-16 2-7 2-1 12 3 20 10 12 9 9 9 7 11 3 9 3 19v19l-3 22 1 9 18 21 4-25 5-22 8-24 1-17 2-3 5 2 10 7 10 9 10 13 6 12 4 16v18l-3 17-5 13-9 17-8 11-3 1 6 11 6 14 7 15 3-17 5-10 14-20 8-14 3-9 3-11 1-2 5 1 7 7 12 18 8 18 3 10 1 12-6 20-5 12-8 13-9 10-5 4-5 2-11 1-5-5-5-7 10 27 8 30 10 40 5 15 6 45 3 22 3 29 3 23 4 66v15l2 67 43-10 48-11 40-8 62-10 5-2v-147l4-36 3-22 4-53 5-30 6-51 6-37 5-21 6-24 6-19 4-19 7-22-3-3-11-7-14-12-9-9-8-11-9-17-4-14-3-18v-18l6-28 5-13 7-10 7-8 6-3 5 1 2 5 1 16 6 9 10 9 10 12 9 13 8 13 4 10 3 18 8-20 9-17 13-21 3-5-1 1h-3v-2l-5-2-10-6-8-9-8-15-5-13-2-9-1-9v-22l2-13 4-13 7-14 8-10 9-10 6-7 13-9 4-2h5l2 2 2 11 1 16 3 10 11 27 5 17 1 9v19l-1 10 15-14 11-9 17-14 8-7 10-7-10 2h-11l-5-2-2-3-2-11-2-23v-14l2-19 4-14 6-12 8-11 9-11 12-10 14-10 14-7zm2 111-4 5 1 2 4-5zm-5 7m-1 1m-1 1m-24 18m-3 2m-2 1m-2 1m-2 1m-2 1m-97 89m-1 1m-376 271m1 2 1 2z" fill="#EBB46B"/>
<path transform="translate(1365,1512)" d="m0 0h87l34 2 39 4 35 6 28 7 33 11 27 11 25 11 26 12 19 10 44 24 13 8 4 6-3 3-2 1h-9l-29-6-67-10-21-2-38-2-48-1h-60l-32 2-35 5-52 10-47 10-43 11-53 15-36 10-49 11-43 8-68 10-46 5-46 4-17 1h-61l-47-4-52-7-40-7-33-7-31-9-31-10-42-12-10-5-6-7v-6l5-1 124-2 45-2 36-3 51-6 22-4 46-9 43-9 82-18 39-9 91-24 56-14 50-11 33-6 26-3z" fill="#D8A055"/>
<path transform="translate(1796,595)" d="m0 0h9l-1 7-8 11-14 15-9 10-12 13-39 39-8 7-14 12-16 13-18 13-20 13-30 18-18 10-16 8 1 5 7 19 8 29 9 40 4 28 7 60 3 13 7 6 23 11 27 11 27 10 21 6 41 8 115 16 7 2 2 3-8 6-16 7-22 8-34 10-39 10-30 7-44 7-38 5-46 4-6 2-10 45-7 25-10 29-15 38-8 17-6 9-4 2-29-8-40-10-23-6-16-6-2-2 1-5 8-16 13-24 8-16 11-29 11-34 9-39 4-24 3-44v-25l-2-48-3-30-4-22-8-32-9-27-13-32-12-26-9-21-1-8 11-10 21-12 18-11 11-8 10-8 15-15 9-11 8-9 6-3 12-2 29-3 44-8 33-7 29-8 29-9 19-7 20-9 16-8z" fill="#9CC84A"/>
<path transform="translate(714,706)" d="m0 0 13 3 20 10 12 9 9 9 7 11 3 9 3 19v19l-3 22 1 9 18 21 4-25 5-22 8-24 1-17 2-3 5 2 10 7 10 9 10 13 6 12 4 16v18l-3 17-5 13-9 17-8 11-3 1 6 11 6 14 7 15 3-17 5-10 14-20 8-14 3-9 3-11 1-2 5 1 7 7 12 18 8 18 3 10 1 12-6 20-5 12-8 13-9 10-5 4-5 2-11 1-5-5-5-7 10 27 8 30 10 40 5 15 6 45 3 22 3 29 3 23 4 66v77h-1l-1-8-2-45-3-47-1-3-4-2-2-3-4-13 1-7v-12l-3-12v-21l-4-8-2-2-1-4-2 3v41l5 21 1 14-2 21-2 10-3 16v68l-2 10-2-1v-30l-2-43-3-22-4-46-3-48-3-24-3-23-4-38-2-6-10 5-7 3-11 2-14 1h-14l-13-4-13-7-12-11-11-15-9-16-2-6v-8l5-3 10-1 6-1 4 3 5 2 2-2 20-2 14 1 12 2 13 9 6 5 7 10 8 12-4-16-4-15-4-23-15-36-9-24-10-25-5-8-7 6-9 7-12 6-7 2h-26l-27-2-10-5-10-8-18-18-6-8v-2l23-5 22-8 13-5 19-4 14 1 9 2 2 1-11-14-9-8-11-7 1 2v6l-5 7-15 12-19 9-18 4-14 2h-8l-18-8-16-10-10-8-7-6-1-4 6-4 16-5 23-13 10-5 12-4h2v-2l-6-1-16-8-12-8-10-9-10-12-15-23-3-9 5-6 8-3 11-1 25 2 15 4 10 5 12 10 11 14 9 15-2-11-1-7v-16l1-17-5-16 2-7zm150 253m1 2 1 2z" fill="#EBB368"/>
<path transform="translate(630,771)" d="m0 0 5 4 4 5 9 7 6 5 14 8 23 8 21 5 20 8 17 9 11 9 22 22 11 14 8 13 5 9 9 14 14 31 11 29 5 17 4 13 7 24 7 33 8 49 5 35 4 39 3 31 1 17 1 32v36h-1l-2-25-2-12-4-46-3-48-3-24-3-23-4-38-2-6-10 5-7 3-11 2-14 1h-14l-13-4-13-7-12-11-11-15-9-16-2-6v-8l5-3 10-1 6-1 4 3 5 2 2-2 20-2 14 1 12 2 13 9 6 5 7 10 8 12-4-16-4-15-4-23-15-36-9-24-10-25-5-8-7 6-9 7-12 6-7 2h-26l-27-2-10-5-10-8-18-18-6-8v-2l23-5 22-8 13-5 19-4 14 1 9 2 2 1-11-14-9-8-11-7 1 2v6l-5 7-15 12-19 9-18 4-14 2h-8l-18-8-16-10-10-8-7-6-1-4 6-4 16-5 23-13 10-5 12-4h2v-2l-6-1-16-8-12-8-10-9-10-12z" fill="#FDFDFD"/>
<path transform="translate(1049,113)" d="m0 0 5 3 7 9 10 23 12 36 10 35 8 32 9 49 3 24 2 30 1 24 1 10 4 4 48 11 25 7 36 12 20 7 17 8 8 7 1 3-4 6-9 10-16 16-7 8-12 12-7 8-14 14-10 8-5 1-15-4-45-14-29-7-22-4-28-3-16-1-35-1-18-1v-1h53l36 3 21 1 3 2 8 2 10 3 17 3 21 6 16 4 7 3 5-1 11 1 9-5h5v-2l5-2 1-3h2l2-4h2l2-4 6-7h2l2-4h2v-3h2l1-3h2l2-4 7-9 2-5h2l4-8-1-11-4-2v-2l-4-1-5-3-16-8-13-5-9-3-16-5-9-3-13-3-11-3-10-2-3-2-1-3-11-2-6-2-6-5-2-6-1-7-1-25-2-7v-11l-1-16h-2l-2-11v-17h-2l-1-8-3-7-3-5-3-16-5-14-3-15-4-12v-5l-2-4-2-13-1-7-2-1-2-5-1-5h-2l-4-10v-3h-3v-3l-9-1-1 6-4 19-4 23-1 13-4 21-4 20-1 14-6 20-5 17-1 8-3 8-4 13-2 7h-2v5h-2l-2 6-4 8h-2l-1 4-9 15-10 5-11 1-7-1-4-1h-7l-4 3-17 3-11 1-4 2h-7l-14 3-7 2-24 7-26 5-9 3h-5l1-2 7-2h-3l-9 2-4 2h6l-2 2-10 2h-11l-10-3-4-3-3-7v-9l-4-8-4-6-2-9-16-28-8-13-8-14-13-19-9-11-14-17-28-30-7-7-11-7-6-5-2-1v-2l-6-1-12-4-2 9 2 6-1 7h2l1 6v7h2l4 8v3h2l2 6 3 10 5 12 4 13 4 9 3 13 5 12 6 20 3 12 3 8v5l2 1-1 2 2 1 1 8 3 10 2 18 1 4 2 20v9l-5 12-7 8-21 14-7 5h-2l-1 3-6 4-7 4h-2l-1 3-6 4-6 5-2 4-8 7-3 3h-2v2l-5 2v2h-2l-2 4-3 1v2l-8 7-5 5-6 7h-2v2h-2v2h-2v2l-3 3h-2l-1 4-5 5-1 3h-2l-1 3-4 4h-2l-1 5-5 3h-3v3l-6-2v-3l-1 3-6-2v-2l-4-1-11-7-6-5-15-8-9-5-19-10-10-5-8-3-5-3-8-3-9-5-13-4-36-12-14-3-5-2-9-2-8-3-9-2-9 1-10-1-5 2h-3l4 10 3 5 2 1v2l4 1 6 4 6 2-1 5 6 2v2l5 2 9 5v2h2v3l4 2 5 5 10 9 5 6 11 9 4 4v2h2v2l4 2 9 10 10 10 7 8 9 11 9 13-1 2-13-16-9-11-10-11-7-8-19-19-8-7-13-11-10-8-18-14-17-12-15-11-19-13-10-9-4-4 1-5 4-1 24 1 25 3 42 8 27 8 33 12 28 12 16 8 23 12 25 15 18 12 8 5 23-23 7-8 16-16 8-7 7-7 14-11 16-13 13-10 19-13 11-8 8-7 3-6v-35l-4-28-9-36-12-38-17-47-12-29-13-30-10-25v-5l6-1 10 4 11 7 13 11 11 9 15 14 18 18 7 8 10 11 7 8 11 14 12 17 15 23 15 25 9 16 18 36 2 3 9-2 20-6 42-11 37-8 52-8 27-2 7-3 9-17 13-36 7-23 7-28 8-44 9-63 2-21 1-24 3-6z" fill="#AED766"/>
<path transform="translate(1796,595)" d="m0 0h9l-1 7-8 11-14 15-9 10-12 13-39 39-8 7-14 12-16 13-18 13-20 13-30 18-18 10-16 8 1 5 7 19 8 29 9 40 4 28 7 60 3 13 7 6 23 11 27 11 27 10 21 6 41 8 115 16 7 2 2 3-8 6-16 7-22 8-34 10-39 10-30 7-44 7-38 5-46 4-6 2-10 45-7 25-10 29-15 38-8 17-6 9-4 2-29-8-40-10-23-6-16-6-2-2 1-5 8-16 13-24 8-16 11-29 11-34 9-39 4-24 3-44v-25l-2-48-3-30-4-22-8-32-9-27-13-32-12-26-9-21-1-8 11-10 21-12 18-11 11-8 10-8 15-15 9-11 8-9 6-3 12-2 29-3 44-8 33-7 29-8 29-9 19-7 20-9 16-8zm-45 29-7 1-7 3-3 1v2l-9 2-10 1-9 4-9 3-9 2 3 3-9 2-7 3-5 1-17 4-8 2-5 2-24 1-6 3-9 2-6 2-10 2-19 3-2 1v-2l4-1-2-2h-5l-10 4-8 6-4 4-7 4-5 6-5 4-4 6-7 7-6 7-6 4-1 2-5 2-6 4-9 5-8 4-4 5v2l-4 2-4 9 2 4v-2h2v12h-3l-1-2-1 2 7 14h2l3 10 6 14 4 11 9 24 5 12 5 22 1 4h2l-1 6h2v7h2l-1 3h2l-1 7h2l1 13 4 33 1 12 1 31v23l-2 30-2 22-3 11-4 19-3 12-3 15-4 10-3 13-5 15-4 9-3 10-4 8-5 18-7 16-1 6h-2l-1 4-2 2-1 8 1 3h2l2 4 2 2 4 1 3 3 20 6 17 4 11 4 7 1h11l9-1 6-3 7-7 4-6-1-3-2 4h-2l-1 3-2 1 5-10v-3h2l1-7 5-13 2-7 5-11 4-12 4-10 4-16 7-22 4-15 6-18 5-2 5-4 42-1 13-3 18-2 19-3 9-3 23-4 12-3 11-3 8-3 12-2 5-2 3-1v-2l7-1 15-5 10-5 5-4 1-3-2-4-5-3-14-5-10-3-5-1h-12l-11-3-9-2-6-2-7-2-11-2-5-1-12-3-6-2-8-2-5-2-7-2-15-7-16-6-9-5-8-3-3-3-4-7-9-6-5-3-3-4-1-5-4-1-3-6-1-9-1-13v-12l-2-9v-6l1-5-4-10-2-12-1-7-2-9-4-14-4-21v-15l-2-6-2-10-6-17v-7l3-5 9-5v-2l6-1 9-5 10-6 4-2v-2l6-2 8-6 13-6 4-4 9-6 10-6 6-3v-2h2l4-4 4-2 3-3 6-4 7-8 2-1v-2l15-6 10-11 2-1v-2h2l7-8 26-26 2-5 5-5v-2l-8-1v-3l-5-2z" fill="#B3D96E"/>
<path transform="translate(1318,668)" d="m0 0h40l13 5 20 10 12 7 8 4 19 3 7 4-1 5-9 10-11 11-10 8-13 6-18 6-11 2-22 1-13-1-21-6-12-6-14-10-10-9-2-4 1-5 8-12 9-12 10-8 16-8z" fill="#D8A055"/>
<path transform="translate(1077,771)" d="m0 0 4 1 5 5 7 10 7 8 9 8 12 9 15 14 8 9 6 10 3 6 2 12v22l-4 18-6 16-3 5-2 1h-8l-21-8-12-7-13-11-9-10-10-18-4-10-1-4-1-14 1-46 5-13 7-10z" fill="#D8A055"/>
<path transform="translate(1278,771)" d="m0 0h34l18 2 9 3 2 2h11l7-4 7-2h7l5 4 1 5-5 14-7 11-12 16-12 9-16 9-18 8-13 3-8 1h-21l-15-2-15-5-15-7-2-5 4-13 8-16 7-10 8-8 8-6 9-6 6-2z" fill="#D8A055"/>
<path transform="translate(1405,596)" d="m0 0h14l21 5 19 9 21 14 7 4 24 4 8 4 1 4-6 7-17 13-18 11-11 3-14 2-16 1h-17l-18-2-12-4-16-8-12-9-7-8-4-9v-9l6-10 9-8 16-8 16-5z" fill="#D8A055"/>
<path transform="translate(1009,1066)" d="m0 0 10 4 9 7 5 6 9 6 12 4 17 10 14 9 13 12 6 8 4 8 4 14 1 5v14l-3 14-5 13-4 5-3 2-8-1-27-9-12-7-12-11-10-10-11-16-8-15-3-14-1-15v-24l2-17z" fill="#D8A055"/>
<path transform="translate(1344,866)" d="m0 0 4 2 1 2v7l-8 24-7 13-8 10-5 5-8 7-15 9-15 6-20 4-20 1-21-1-11-2-5-4-3-5-1-9 3-15 6-12 9-12 10-8 15-8 13-4 54-1 12-2z" fill="#D8A055"/>
<path transform="translate(1040,916)" d="m0 0 5 1 3 5 3 13 3 5 15 10 20 12 12 9 8 8 8 13 6 14 2 10v12l-2 13-11 25-2 2-8-1-24-11-14-10-11-10-7-8-8-11-8-16-4-13-1-11v-14l1-26 5-12 7-8z" fill="#D8A055"/>
<path transform="translate(1295,1093)" d="m0 0h5l2 2v13l-5 24-6 18-7 12-13 16-10 9-16 10-16 6-21 4-23 1-6-2-2-3-2-18v-14l4-10 11-18 11-11 16-10 15-6 25-6 15-3 11-6 10-7z" fill="#D8A055"/>
<path transform="translate(1323,988)" d="m0 0 5 1 2 3v10l-5 13-10 16-13 15-10 8-11 7-16 8-15 5-12 2h-34l-10-3-8-7-1-2v-15l4-13 11-17 9-10 12-7 14-5 16-1h46l11-3 11-4z" fill="#D8A055"/>
<path transform="translate(883,1356)" d="m0 0 2 1-9 5-11 3-9 2-9 4-13 3-7 2-10 2-10 3-16 3-18 4-14 4-16 2-14 4-18 4-17 4-30 7-8 1-9 1-14 4-28 5-18 4-22 4-19 1-13 2-8 2-18 2-18 3h-10l-17 1-4 2-27 3-16 2-10 1h-12l-27 3-31 1-26 2-11 1-47 2-12 1-27 1h-9l-15 1-1 1-31 4-2 1-17 2-2 1-1 5h2l1 5h3l1 2 11 2 7 2 3 2v2l9 2 15 5 10 4 18 5 23 8 8 2 7 2 2-1 2 1v2l9 2 7 3v2l7 1 3 1v2l-8-1-28-7-36-11-45-15-41-14-40-13-17-5-6-4-1-5 3-3 23-2 174-2 123-7 54-5 84-9 36-5 62-12 86-19 56-12 71-15 48-10z" fill="#EBB46B"/>
<path transform="translate(1244,535)" d="m0 0h6l2 5v18l6 19 4 7v2h2l9 29 1 14-2 12-12 20h-2l-2 4-7 8-7 7-12 9-5 1-6-4-7-10-4-5-4-8-4-11-3-7-2-13v-26l3-12 5-14 4-6 2-5 3-6 5-5 4-6 9-9 9-6z" fill="#D8A055"/>
<path transform="translate(1140,658)" d="m0 0h6l5 4v9l4 10 5 7 5 5 11 12 6 8 4 6 10 21 3 14-1 16-12 26-6 10-3 6h-8l-12-8-22-22-8-13-6-11-4-13-2-7-1-7v-18l4-19h2l3-9 7-18 6-7z" fill="#D8A055"/>
<path transform="translate(1586,812)" d="m0 0 2 3 2 6 3 3h-2l3 8 4 16 3 10 6 31 2 11v5h2l7 60 3 13 7 6 23 11 27 11 27 10 21 6 41 8 115 16 7 2 2 3-8 6-16 7-22 8-34 10-39 10-30 7-44 7-38 5-46 4-6 2-10 45-7 25-10 29-15 38-8 17-6 9-4 2-29-8-14-5-15-4-1-2 9 1 18 6 7 1h11l9-1 6-2 1-3 5-2 4-10-2 3h-2l-1 4h-2l2-5 3-8h2l-1-4 5-14 4-10 6-17 4-9 6-22 7-22 4-15 3-9 4-9 4-3 6-4 42-1 13-3 18-2 19-3 9-3 23-4 12-3 11-3 8-3 12-2 5-2h3v-2l22-7 10-5 5-5-1-4-5-3-14-5-10-3-5-1h-12l-11-3-9-2-6-2-7-2-11-2-5-1-12-3-6-2-8-2-5-2-7-2-15-7-16-6-9-5-8-3-4-4-3-5v-2l-5-2-9-6-4-5v-5l-5-1-3-6-1-9-1-13v-12l-2-9v-6l1-5-4-10-2-12-1-7-2-9-4-14-4-21v-15l-2-6z" fill="#B0D869"/>
<path transform="translate(1380,456)" d="m0 0h9l1 1v7l-7 21v60l-8 16-9 12-12 12-15 8-14 5-8-1-7-3-3-3-2-16-1-12v-14l2-19 4-14h2l2-5 9-14 11-11 8-7 14-11 11-7z" fill="#D8A055"/>
<path transform="translate(1331,1514)" d="m0 0h9v1l-24 4-9 1-14 2-12 2-10 4-21 5-16 3-7 2h-8v2l-23 6-13 2-2-1v2l-26 8-9 1-10 4-25 6-8 3-7 2-10 3-13 3-21 7-7 2-10 2-16 4-22 5-2 1-14 2-13 3-6 2-20 4-18 5-8 2-6 1-3-1-5 2v1l-17 3h-9l-10 3h-8l-6 2-21 3-10 2-29 2-14 2-32 3-2 1-25 2-13 2-23 4-19 4-8 3v5l9 1 12 6 1 3 7 1 4 1v2l3-1 4 3 16 2 3 1v2l6-1 9 3 10 4 3 1v2l-23-4-25-6-27-8-28-9-42-12-10-5-6-7v-6l5-1 124-2 45-2 36-3 51-6 22-4 46-9 43-9 82-18 39-9 91-24 56-14 50-11 33-6z" fill="#EBB46B"/>
<path transform="translate(610,199)" d="m0 0h11l11 7 14 12 8 7 10 9h-3l-9-7-2-1v-2l-6-1-12-4-2 9 2 6-1 7h2l1 6v7h2l4 8v3h2l2 6 3 10 5 12 4 13 4 9 3 13 5 12 6 20 3 12 3 8v5l2 1-1 2 2 1 1 8 3 10 2 18 1 4 2 20v9l-5 12-7 8-21 14-7 5h-2l-1 3-6 4-7 4h-2l-1 3-6 4-6 5-2 4-8 7-3 3h-2v2l-5 2v2h-2l-2 4-3 1v2l-8 7-5 5-6 7h-2v2h-2v2h-2v2l-3 3h-2l-1 4-5 5-1 3h-2l-1 3-4 4h-2l-1 5-5 3h-3v3l-6-2v-3l-1 3-6-2v-2l-4-1-11-7-6-5-15-8-9-5-19-10-10-5-8-3-5-3-8-3-9-5-13-4-36-12-14-3-5-2-9-2-8-3-9-2-9 1-10-1-5 2h-3l4 10 3 5 2 1v2l4 1 6 4 6 2-1 5 6 2v2l5 2 9 5v2h2v3l4 2 5 5 10 9 5 6 11 9 4 4v2h2v2l4 2 9 10 10 10 7 8 9 11 9 13-1 2-13-16-9-11-10-11-7-8-19-19-8-7-13-11-10-8-18-14-17-12-15-11-19-13-10-9-4-4 1-5 4-1 24 1 25 3 42 8 27 8 33 12 28 12 16 8 23 12 25 15 18 12 8 5 23-23 7-8 16-16 8-7 7-7 14-11 16-13 13-10 19-13 11-8 8-7 3-6v-35l-4-28-9-36-12-38-6-17-4-16-11-29-8-20-4-9-8-20-6-16z" fill="#AED767"/>
<path transform="translate(1480,496)" d="m0 0h10l5 1 9 1 11 5 1 9-3 7h-2v3h-2l-2 5-5 8h-2l-1 3h-2l-2 5-3 4h-2l-2 5-10 6-10 7-11 7-13 6-15 4-9 3-16 2-4-2-2-4-1-15-1-4 3-8 5-6 5-8 6-9 6-5h2v-2l10-7h2l1-3 13-8 12-5 5-2 11-1z" fill="#D8A055"/>
<path transform="translate(765,1101)" d="m0 0h7l15 5 12 1h10l20 3 13 5 8 6 8 8 8 16 3 7 2 14v6l-2 2-8 2-18 1h-24l-13-3-16-8-10-8-6-8-9-27-2-9v-10z" fill="#EAB267"/>
<path transform="translate(383,1008)" d="m0 0 6 2 3 6v6l1 1 3 37 1 15v7l2 8 1 12 2 10v7l4 15 3 9 4 21 3 10 5 12v6l-10 6-5 5-9 7-2 3-15 7-4 4-6 3-4 3h-2v2l-9 6h-2l-1 3-4 4h-3v2h-2v2h-2l-1 3-8 6h-2v2h-2v2l-5 3-5 6h-3l-1 3-5 5-4 2-2 4-3 1-1 4-7 6-5 5-5 6-6 7h-2v2h-2l-1 4-8 8-4 8-4 9-1 4 1 5 4 1h11l17-7 7-3 9-2 9-5 9-2 7-3 23-7 10-4 11-3 4-2h5l1-2 2 1 1-2 15-4 8-1 3 2 12-2v-2l7-1h3l1-2h30l8 7 4 7v2l4 2 6 9 3 6 8 11 6 8 2 5 6 5 3 4v2l6 2 3 3h7l1-1h16l14-2 21-7 12-1 6 1 3-1 1-2 7-1v-2l7-3 5-5-2-10 1-5-10-11-4-7-7-8-11-16 1-2 20 26 11 12 10 11 7 14v4l-13 4-52 10-48 9h-9l-6-7-13-19-11-17-11-18-7-9-6-4-26 1-21 3-25 6-26 8-43 15-22 8-24 10-33 14-21 8-10 2-2-1 1-7 11-16 9-11 12-14 15-16 42-42 8-7 15-13 14-11 13-10 12-9 17-12 18-12 16-10 2-2-1-9-6-21-7-26-8-44-2-17-3-54-2-8z" fill="#B1D96D"/>
<path transform="translate(781,1178)" d="m0 0 5 2 13 8 7 3 15 1 16 7 10 5 13 10 9 10 4 9 3 15 1 9v11l-8 3-10 1-19-2-21-6-10-6-12-11-7-10-5-10-4-16z" fill="#EBB46B"/>
<path transform="translate(752,938)" d="m0 0h34l20 3 10 4 1 3 5 2 5 8 10 24 2 8v9l-2 2-17 2h-40l-11-1-10-7-12-11-11-14-7-12-4-11v-5l9-3z" fill="#EAB368"/>
<path transform="translate(978,1052)" d="m0 0 4 1 7 10 2 6 1 8v26l-2 11-7 18-11 12-16 12-17 10-8 4h-6l-3-5-5-21-2-12v-17l6-11 9-10 11-10 15-11 9-7z" fill="#EBB368"/>
<path transform="translate(946,943)" d="m0 0 4 1 3 6 7 25 3 13v15l-4 14-7 14-8 10-7 7-17 12-13 8-4-2-5-8-4-8-3-7-2-12v-9l4-17 6-12 12-13 16-12 7-7z" fill="#EBB369"/>
<path transform="translate(998,1163)" d="m0 0 3 3 1 4 1 17v17l-2 17-4 10-6 10-9 10-13 8-17 7-15 4h-10l-3-4-2-13v-19l4-10 11-17 11-10 24-13 13-9 11-11z" fill="#EBB46B"/>
<path transform="translate(1246,530)" d="m0 0h5l2 2 2 11 1 16 3 10 11 27 5 17 1 9v19l-1 10 15-14 11-9 7-6 2 1-15 14-17 16-11 12-5 7-3 2-4 7-12 17-10 15-10 17-17 32-5 10-7 16-14 38-8 25-7 27-6 24-8 36-4 21-4 24-3 19-5 53-4 30-6 84-3 67-1 36h-1l-1-22v-94l4-36 3-22 4-53 5-30 6-51 6-37 5-21 6-24 6-19 4-19 7-22-3-3-11-7-14-12-9-9-8-11-9-17-4-14 1-4 5 15 10 18 11 12 14 14 11 7 8 1 2-6 9-16 9-20 1-16-3-14-13-26-6-7-14-16v-2l-4-2-6-10-2-6v-9l-4-3h-6l-6 4-4 6-10 25h-1l1-9 5-13 7-10 7-8 6-3 5 1 2 5 1 16 6 9 10 9 10 12 9 13 8 13 4 10 3 18 8-20 9-17 13-21 3-5-1 1h-3v-2l-5-2 4-4 8-6 10-9 8-9 1-2h2l2-5 9-15 2-12-1-14-5-15-3-11v-3h-2l-7-14-4-14v-18l-1-5-8 2-8 4-12 11-7 10-4 4-2 7-3 3-7 18-3 12v26l3 16 5 12 4 9 4 6 7 9h-3l-7-8-8-15-5-13-2-9-1-9v-22l2-13 4-13 7-14 8-10 9-10 6-7 13-9z" fill="#FDFDFD"/>
<path transform="translate(438,662)" d="m0 0 5 5 11 17 5 11v4l3-1 3 4v6l-2 2-2 8-6 10-5 15-5 12-1 2-1 7-4 9-3 8-3 12-3 6-3 10-4 7-2 8-6 16-3 15-3 8-2 7-3 10-4 7-8 1-26 1-5 1h-13v-2l-2 2-15 1-11 1h-20l-15 1-13 2-19 5-13 2h-6v-2l-4 1-7 2-8 1-1 2-7 2 1 2h-2l-1 2-2-1-1 3-19 9-5 2-2 4 3 7 6 4 9 2 5 3 7 1 3 1v2l6-1 3 3 15 3h14l12 3 3 2v2l7 1-1 2-28-6-45-7-24-3-39-3-11-2-3-3 1-4 9-8 16-8 21-8 28-9 32-8 32-5 27-4 13-1 40-1h57l2-1 12-45 9-31 10-28 15-35 12-25 3-8v-13l-5-12-11-18-3-4z" fill="#B0D86A"/>
<path transform="translate(892,860)" d="m0 0 5 1 8 5 9 14 5 10 2 5 2 14v12l-3 14-5 12-8 13-9 10-5 4-5 2h-7l-3-3-10-16-6-15-1-4v-16l6-16 7-13 8-12 5-8 2-10z" fill="#EAB368"/>
<path transform="translate(822,766)" d="m0 0h7l10 7v2h2l12 17 5 11v2h2l2 10v18l-3 17-5 13-3 6-3 3-6 8-2 2-7-1-6-4-8-10-6-7-6-9-4-14v-15l3-14 4-7 5-16 2-9 4-9z" fill="#EBB46A"/>
<path transform="translate(747,871)" d="m0 0h17l14 4 9 5 2 4 4 2 2 4 3 1v2h2l4 7v8l-12 11-14 7-7 2h-26l-17-3-10-3-17-9v-2h-2l-4-4-5-4-1-2v-8l9-4 10-4 6-4 6-3 9-4 8-2z" fill="#EAB368"/>
<path transform="translate(788,1023)" d="m0 0h25l16 5 6 4 8 7 9 12 4 7 3 8v10l-11 1-6 3-14 2h-14l-12-2-12-5-10-7-9-7-5-5-9-10-5-10-2-6v-5l34-1z" fill="#D8A055"/>
<path transform="translate(1318,668)" d="m0 0h40l13 5 20 10 12 7 8 4 19 3 7 4-1 5-9 10-11 11-10 8-13 6-18 6-11 2-22 1-13-1-21-6-12-6-14-10-10-9-2-4 1-5 8-12 9-12 10-8 16-8zm26 12-11 2-12 2-9 4-7 3-4 3v2l-3 1-4 7v13l4 6 13 10 18 6 5 2h18l11-1 15-4 5-2 5-3 8-4 6-5 3-5-1-8-1-2-10-4-5-6h-2l-1-2-5-3-1-2-5-2-9-4-7-2z" fill="#EBB368"/>
<path transform="translate(688,816)" d="m0 0 13 1 19 7 11 7 10 9 3 4-2 4-9 8-14 9-16 8-10 2-8-1-1-1h-17l-12-5-10-2-10-6-5-6-2-8 5-5 9-3 11-9 5-4h6l12-5z" fill="#D8A055"/>
<path transform="translate(1405,596)" d="m0 0h14l21 5 19 9 21 14 7 4 24 4 8 4 1 4-6 7-17 13-18 11-11 3-14 2-16 1h-17l-18-2-12-4-16-8-12-9-7-8-4-9v-9l6-10 9-8 16-8 16-5zm8 12-7 4-23 8-6 4-6 8-1 2v8l1 6 6 3h3v2l6 3 3 3 7 3 3 2 10 2 4 2 15 1 5 1h10l6-2 7-1 8-3h7v-2l4-1 5-5v-2h2l2-4-1-8-6-5h-2l-1-3-7-5-8-4h-2v-2l-8-4h-3v-2l-5-2h-4v-2l-11-3-7-2z" fill="#EBB368"/>
<path transform="translate(1077,771)" d="m0 0 4 1 5 5 7 10 7 8 9 8 12 9 15 14 8 9 6 10 3 6 2 12v22l-4 18-6 16-3 5-2 1h-8l-21-8-12-7-13-11-9-10-10-18-4-10-1-4-1-14 1-46 5-13 7-10zm4 39-5 3-2 2v4h-2l-1 10-1 15 5 15 7 15 3 6 4 4 1 2h2l1 3 8 7h2v2l9 5 5 4 5 1h11l5-4 7-20v-12l-2-18-3-9-3-4h-2l-1-3-6-4h-2v-2l-7-5h-3l-1-3-8-6-5-3-1-2h-3v-2l-3-1z" fill="#EBB368"/>
<path transform="translate(1009,1066)" d="m0 0 10 4 9 7 5 6 9 6 12 4 17 10 14 9 13 12 6 8 4 8 4 14 1 5v14l-3 14-5 13-4 5-3 2-8-1-27-9-12-7-12-11-10-10-11-16-8-15-3-14-1-15v-24l2-17zm17 36v2h-5l-4 7 1 19 4 8 2 7h2v4h2v5l3 5h2l2 5h2l2 4 3 1 2 4 4 4h3l1 3 7 4 16 8 10 3 11 1 3-2 2-7-1-30-2-10-4-8-6-7-11-9-10-7-16-8-13-5-5-1z" fill="#EBB56C"/>
<path transform="translate(1278,771)" d="m0 0h34l18 2 9 3 2 2h11l7-4 7-2h7l5 4 1 5-5 14-7 11-12 16-12 9-16 9-18 8-13 3-8 1h-21l-15-2-15-5-15-7-2-5 4-13 8-16 7-10 8-8 8-6 9-6 6-2zm3 8-12 3-5 4-4 2-2-1-6 11-5 8-3 11v3h-2l1 9 3 8 4 1v2l14 3 14 1h17l14-3 16-8 8-6 7-5v-2h2l7-9 2-1 2-4v-8l-3-5-7-3-17-4-3-2-16-3-2-1z" fill="#EBB46B"/>
<path transform="translate(1477,1514)" d="m0 0 21 1 34 4 28 5 28 7 33 11 27 11 25 11 26 12 19 10 44 24 13 8 4 6-3 3-2 1h-9l-29-6-67-10-21-2-38-2v-1l11-1 23 1h43l3-1 11-1 4-2v-7l-5-4v-2h-2v-2l-5-2-5-3-2-1v-2l-9-3-5-2v-2l-5-1-19-8-9-4-14-4v-2l-6-1-11-5-10-3-7-2v-2h-6l-6-2-20-6v-2l-11-2-10-4-12-2-5-2h-9l-5-2-27-3z" fill="#EBB56C"/>
<path transform="translate(1295,1093)" d="m0 0h5l2 2v13l-5 24-6 18-7 12-13 16-10 9-16 10-16 6-21 4-23 1-6-2-2-3-2-18v-14l4-10 11-18 11-11 16-10 15-6 25-6 15-3 11-6 10-7zm-31 30-20 4-19 5-11 6-9 5v2l-4 2-6 10-6 15-2 19 2 9 5 5 6 1 15-2 7-3 3-3 11-6 11-5 1-2 3-1v-2l5-2 12-15v-2h2l5-8 5-5 5-12-1-9-1-3-8-3z" fill="#EBB46A"/>
<path transform="translate(1040,916)" d="m0 0 5 1 3 5 3 13 3 5 15 10 20 12 12 9 8 8 8 13 6 14 2 10v12l-2 13-11 25-2 2-8-1-24-11-14-10-11-10-7-8-8-11-8-16-4-13-1-11v-14l1-26 5-12 7-8zm7 35-6 3-5 8-1 9v8l1 8h2l1 8 5 14 2 6h2v3l5 5 8 10 5 5 9 6 9 5 10 1 5 2h5l5-5 1-5h2l2-18-1-13-2-10-4-6-3-7-1-2h-2v-3h-2l-2-5h-2v-2h-3v-2l-5-2v-2l-17-9-13-6-7-4z" fill="#EBB368"/>
<path transform="translate(1344,866)" d="m0 0 4 2 1 2v7l-8 24-7 13-8 10-5 5-8 7-15 9-15 6-20 4-20 1-21-1-11-2-5-4-3-5-1-9 3-15 6-12 9-12 10-8 15-8 13-4 54-1 12-2zm-78 15-5 3-15 5-3 2v2l-4 1v2l-4 2-3 2v2h-2l-2 5h-2l-7 14-2 12 2 9 2 4 3 2 12 2h17l17-2 11-4v-2l5-2 9-4 5-3v-2l5-2 1-4h2l7-8 3-4 1-3 4-2 4-8v-7l-7-6-12-3-23-2-5-1z" fill="#EBB46A"/>
<path transform="translate(1323,988)" d="m0 0 5 1 2 3v10l-5 13-10 16-13 15-10 8-11 7-16 8-15 5-12 2h-34l-10-3-8-7-1-2v-15l4-13 11-17 9-10 12-7 14-5 16-1h46l11-3 11-4zm-73 13-11 3-3 1v2l-4 1-8 4-10 9-1 3-4 2-5 7-4 10-1 13 3 7 8 4 10 2h14l19-2 12-6 7-1 2-4h2l1-2 7-3v-2l4-2 9-12 4-6 2-1 2-6-1-7-4-2v-2l-5-2-1-2h-2v-2l-17-2-20-2z" fill="#EBB56C"/>
<path transform="translate(1378,454)" d="m0 0h13l4 3v6l-7 15v68l-2 8-3 8 5-8 5-10 12-16 11-12 11-11 16-11 14-5 26-6 18-1 15 2 8 4 5 6v8l-7 16-10 15-9 12-11 12-10 9-19 12-18 8-14 4-31 6-17 5-21 11-17 12-6 5-2-1 8-7 10-8 17-11 16-10 12-3 28-4 21-5 12-5 11-7 13-11 13-13 9-12 16-25 2-3-1-12-9-2h-26l-36 4-8 4-9 4-11 8-11 11-13 20-16 32-7 8-8 6-21 11-16 10-11 6-9 7-2-1 13-11 10-8h-2l-6 1h-11l-5-2-2-3v-6l2 1v2l10 3 8-1 15-6 12-7 12-12 9-14 6-12v-60l7-21v-7h-9l-15 6-14 10-10 8-16 15-7 10-6 10-1-3 6-10 7-10 9-11 12-10 14-10 14-7zm2 111-4 5 1 2 4-5z" fill="#FDFDFD"/>
<path transform="translate(817,756)" d="m0 0 5 2 10 7 10 9 10 13 6 12 1 6-2-2-7-14-9-12v-2h-2l-5-5-5-3h-7l-4 9-4 15-4 12-4 8-2 11v15l5 16 8 11 10 11 4 4 5 2 5-1 6-8 3-3-2 6-10 15-4 2 6 11 6 14 7 15 3-17 5-10 14-20 8-14 3-9 3-11 1-2 5 1 7 7 12 18 8 18 3 10 1 12-4 14-1-4 1-4v-12l-2-14-5-12-9-14-5-5-5-3-5 1-2 3-2 10-10 15-6 10-8 18-1 4v16l5 14 6 12 6 9v2h2v2l-6-1-7-10 11 33 11 42 5 21 5 15 6 45 3 22 3 29 3 23 4 66-1 8h-1l-4-63-4-37-6-48-6-34-6-28-7-30-5-16-7-24-9-25-6-15-15-31-8-14-11-17-13-19-14-16-19-19-8-7-4-4v-3l5-1 7-8h1v11l2 5 11 13 6 7 4-25 5-22 8-24 1-17zm47 203m1 2 1 2z" fill="#FDFDFD"/>
<path transform="translate(665,620)" d="m0 0 3 1-13 12-29 29-9 11-12 16-14 19-10 15-12 19-11 19-8 15-13 30-11 29-8 25-6 21-7 34-5 34-2 25v67l3 25 7 41 4 16v4h-2l-5-19-2-10-1-7-5-13v-12l-2-12-1-19-1-11-1-39 1-14v-37l2-10v-7l3-20 4-17 2-7 4-18 2-5 2-8 3-8 1-3h2v-5l5-12 2-4h2l2-7 2-5h2l1-6 1-2h2l1-8 5-8 4-9 4-8 4-5 2-7 10-16 8-13 10-13 9-6v-2h2l1-4 5-7 4-7 3-1 2-6 5-4h2v-2l6-5 7-8 8-8 10-8 5-5 3-1 2-4z" fill="#B0D86A"/>
<path transform="translate(1244,535)" d="m0 0h6l2 5v18l6 19 4 7v2h2l9 29 1 14-2 12-12 20h-2l-2 4-7 8-7 7-12 9-5 1-6-4-7-10-4-5-4-8-4-11-3-7-2-13v-26l3-12 5-14 4-6 2-5 3-6 5-5 4-6 9-9 9-6zm-12 30-5 3-10 10v2h-2l-6 14-3 11-2 7v14l2 17 1 10 5 10 6 8 5 1v2l11 2 9-1 7-5v-3l4-2 6-8 3-5v-13l2-5 1-16-6-18-6-11-3-7-1-4h-2l-1-6h-2v-2l-9-5z" fill="#EBB368"/>
<path transform="translate(1114,354)" d="m0 0h1l1 24 1 10 4 4 48 11 25 7 36 12 20 7 17 8 8 7 1 3-4 6-9 10-16 16-7 8-12 12-7 8-14 14-10 8-5 1-15-4-45-14-29-7-22-4-28-3-16-1-35-1-18-1v-1h53l36 3 21 1 3 2 8 2 10 3 17 3 21 6 16 4 7 3 5-1 11 1 9-5h5v-2l5-2 1-3h2l2-4h2l2-4 6-7h2l2-4h2v-3h2l1-3h2l2-4 7-9 2-5h2l4-8-1-11-4-2v-2l-4-1-5-3-16-8-13-5-9-3-16-5-9-3-13-3-11-3-10-2-3-2-1-3-11-2-6-2-6-5-2-6-1-7v-24z" fill="#AFD767"/>
<path transform="translate(1140,658)" d="m0 0h6l5 4v9l4 10 5 7 5 5 11 12 6 8 4 6 10 21 3 14-1 16-12 26-6 10-3 6h-8l-12-8-22-22-8-13-6-11-4-13-2-7-1-7v-18l4-19h2l3-9 7-18 6-7zm1 31-9 9-4 17-2 12-1 16 2 12 3 6 11 18h2l1 4 5 4 3 3 8 7 7 5 5 1 8-5 8-14 5-14 3-8-1-8-2-9v-5l-7-11h-2l-1-4-5-5-8-9h-2l-1-4-4-4h-2l-2-4h-2v-3h-3l-1-3-10-4z" fill="#EBB368"/>
<path transform="translate(737,736)" d="m0 0 8 1 6 2 9 8 9 15 4 9 2 10-1 19-2 6-3 4h-2l-2 4-4-1-8-5-5-4-4-2-4-5-1-2-3-1-5-9-4-7-2-7v-6l3-3v-9l1-9 5-7z" fill="#D8A055"/>
<path transform="translate(1796,595)" d="m0 0h9l-1 7-8 11-14 15-9 10-12 13-39 39-8 7-14 12-16 13-18 13-20 13-30 18-18 10-16 8 1 5 7 19 8 29 9 40 3 19v9h-1l-6-31-4-19-5-17-2-8-1-6 1-1-4-4-7-20-3-9v-7l4-6 8-4 1-2 10-4 9-6 8-4h2v-2l5-3 9-6 10-5h3l2-4 10-6 7-5 8-4h2v-2h2l1-3 5-3h2l1-3 6-4h2l2-4 5-5h2v-2l7-4 8-3 10-11h2v-2h2l2-4 3-1 2-4 25-25 7-8 8-8 12-17 2-5-13 4-19 9-20 8-20 7-65 16-28 5-27 5-8 2-31 3-12 2-6 4 2-4 7-4 12-2 29-3 44-8 33-7 29-8 29-9 19-7 20-9 16-8z" fill="#B6DB75"/>
<path transform="translate(962,1087)" d="m0 0h13l4 4 2 5 1 8 1 4-5 16-2 10-5 5h-2l-2 4-5 3-7 3-3 3h-10l-2 1-8-5-2-4v-11l-1-9 3-12 7-11 4-5h4v-2l7-4z" fill="#D8A055"/>
<path transform="translate(1380,456)" d="m0 0h9l1 1v7l-7 21v60l-8 16-9 12-12 12-15 8-14 5-8-1-7-3-3-3-2-16-1-12v-14l2-19 4-14h2l2-5 9-14 11-11 8-7 14-11 11-7zm-16 25-13 5-6 3-1 4h-2v3l-6 3v2l-5 2v2l-4 2v3h-2l-1 4h-2l-8 19-4 13-1 21 1 11 3 5 8 4 10 2h8l15-8 11-10 8-14 2-4 2-12 2-4 1-8v-16l-2-11-2-3-1-10 1-4h-2l-2-4z" fill="#EBB46A"/>
<path transform="translate(786,952)" d="m0 0h14l13 6 6 4 6 8 6 11 3 9v3l-8 1-7-2-18 4-10-1-8-3-3-1v-2l-5-1-9-5-8-9-4-7v-8l9-5 18-1z" fill="#D8A055"/>
<path transform="translate(816,1119)" d="m0 0h7l12 5 8 5v2l4 1v2h3v2h3l4 7 1 6 5 9v3h-3l-2-3-4 5-18 3 1 2h-9l-11-4v-2l-5-1-5-4-7-4-5-4v-2h-2l-1-5-3-1v-6l-1-3 1-6h2l2-4 10-2z" fill="#D8A055"/>
<path transform="translate(656,748)" d="m0 0 12 1 18 8 4 3v2l4 2 2 5 4 2 7 11 4 10v6l-2 4h-2l-1 3-2 1h-8l-13-4-8-7-10-6v-2h-2l-16-16-6-7-1-5-2-2 1-5 6-3z" fill="#D8A055"/>
<path transform="translate(753,880)" d="m0 0 4 1 21 5 10 2 8 9 3 6-1 4-1 2-10 2-6 6h-2v2l-16 2-3 1h-10l-5-2-8-2-9-5-6-7-1-7 1-4 3-5 13-7z" fill="#D8A055"/>
<path transform="translate(828,792)" d="m0 0h8l6 4 5 6v2h2l4 13 1 6v9l-3 7-3 16-8 11-7 1-7-4-5-5-3-2-8-16v-3l2-2 4-20 6-15 3-6z" fill="#D8A055"/>
<path transform="translate(938,981)" d="m0 0h7l5 5 3 15-5 15-7 14-9 11-9 6-9 2-6-4-5-8-1-5-1-3v-8l3-7 2-5 3-7h2l1-2h2l2-4 5-4 4-4 10-6z" fill="#D8A055"/>
<path transform="translate(610,199)" d="m0 0h11l11 7 14 12 8 7 10 9h-3l-9-7-2-1v-2l-6-1-12-4-2 9 2 6-1 7h2l1 6v7h2l4 8v3h2l2 6 3 10 5 12 4 13 4 9 3 13 5 12 6 20 3 12 3 8v5l2 1-1 2 2 1 1 8 3 10 2 18 1 4 2 20v9l-5 12-7 8-15 10-4 1 3-5 11-8 5-6 2-4v-35l-4-28-9-36-12-38-6-17-4-16-11-29-8-20-4-9-8-20-6-16z" fill="#AFD768"/>
<path transform="translate(688,816)" d="m0 0 13 1 19 7 11 7 10 9 3 4-2 4-9 8-14 9-16 8-10 2-8-1-1-1h-17l-12-5-10-2-10-6-5-6-2-8 5-5 9-3 11-9 5-4h6l12-5zm9 7-12 3-12 6v2l-4 1-1 3-5 1-4 9v6l4 6 9 3 12 3 14-2 11-1 8-3 4-3 5-1 4-2 3-6-1-7-4-9-8-4-14-4z" fill="#EAB267"/>
<path transform="translate(984,1194)" d="m0 0h4l5 8 1 10-5 16h-2l-2 5-13 12-5 3h-2v2l-12 5h-9l-3-3-1-5v-14l3-11 3-5 2-5 9-8 15-7z" fill="#D8A055"/>
<path transform="translate(1330,633)" d="m0 0 2 1-14 14-9 11-7 7-10 13-14 18-8 13-15 27-8 16-6 15-8 21-10 25-5 14-6 18-12 48-10 44-6 31-4 35-4 34-3 22-1 17-1 86v125l-1 7-3-1-1-5-1-54v-66l3-78 7-78 4-29 7-41 8-43 6-22 9-32 8-27 10-27 7-18 11-23 16-31 15-25 9-12 11-14 12-14 11-12 8-7z" fill="#FDFDFD"/>
<path transform="translate(825,1212)" d="m0 0 14 1 3 3 3 1v2l5 1 5 5 7 8 2 8v14l-3 3-19 1-10-3-11-7-4-6h-2v-2l-3-1-5-7-5-11-1-7 1-2h10l9 1z" fill="#D8A055"/>
<path transform="translate(788,1023)" d="m0 0h25l16 5 6 4 8 7 9 12 4 7 3 8v10l-11 1-6 3-14 2h-14l-12-2-12-5-10-7-9-7-5-5-9-10-5-10-2-6v-5l34-1zm7 8-16 4-2 1-2 4 1 4 2-2-1 5 1 3-3 1 5 7 4 4h2l2 5 7 4h3v2l11 4h14l1-1 12-2 9-2h4l2-2v-3h3l-3-10-5-9-4-4h-3l-2-5-8-3-10-2h-20v2l-5-1v-2l3-1z" fill="#EAB267"/>
<path transform="translate(1608,1111)" d="m0 0 2 1-4 5-3 11-2 21-7 28-12 36-16 41-8 17-6 9-4 2-29-8-14-5-15-4-1-2 9 1 18 6 7 1h11l9-1 6-2 1-3 5-2 4-10-2 3h-2l-1 4h-2l2-5 3-8h2l-1-4 5-14 4-10 6-17 4-9 6-22 7-22 4-15 3-9 4-9 4-3z" fill="#B0D86B"/>
<path transform="translate(896,886)" d="m0 0 5 1-1 2 4 4 5 8 4 13-1 12-3 8-5 8-5 3-5 8-7 3-7-1-2-1v-2l-3-1-2-5v-13l4-17 4-10 4-5 5-9h2l1-5z" fill="#D8A055"/>
<path transform="translate(383,1444)" d="m0 0h9l-2 2-69 6-52 3-58 2h-76l-26-1h-18l-12 1 1 5-2 5 10 1 8 4 13 5 10 3 11 4 10 3 7 2 6 3 13 4 9 2 5 3 20 5 7 4 13 4h7l9 3 1 1 6 1v2l15 4h8l6 2v2l7 1 3 1v2l-8-1-28-7-36-11-45-15-41-14-40-13-17-5-6-4-1-5 3-3 23-2 174-2 54-3z" fill="#FDFDFD"/>
<path transform="translate(438,662)" d="m0 0 5 5 11 17 5 11v4l3-1 3 4v6l-2 2-2 8-6 10-5 15-5 12-1 2-1 7-4 9-3 8-3 12-3 6-3 10-4 7-2 8-6 16-3 15-3 8-2 7-3 10-6 6h-5l3-3 12-45 9-31 10-28 15-35 12-25 3-8v-13l-5-12-11-18-3-4z" fill="#B2D96E"/>
<path transform="translate(590,1294)" d="m0 0 5 5 9 12 8 10 9 10 7 7 7 10 4 9v4l-13 4-52 10-48 9h-9l-6-7-13-19-11-17-11-18-7-9-6-4-26 1-21 3-9 2h-5l3-2 18-4 40-5 7 4 6 9v2l4 2 6 9 3 6 8 11 6 8 2 5 6 5 3 4v2l6 2 3 3h7l1-1h16l14-2 21-7 12-1 6 1 3-1 1-2 7-1v-2l7-3 5-5-2-10 1-5-10-11-4-7-7-8-11-16z" fill="#B1D769"/>
<path transform="translate(1318,668)" d="m0 0h40l13 5 20 10 12 7 8 4 19 3 7 4-1 5-9 10-11 11-10 8-13 6-18 6-11 1 2-2 23-6 14-7 10-8 8-6 10-11 1-3-4-3-8-1-15-2-10-4-22-12-20-8-11-3h-18l-15 4-13 9-11 11-7 14-1 7 13 13 13 8 20 7 12 3v1l-10-1-17-5-12-6-14-10-10-9-2-4 1-5 8-12 9-12 10-8 16-8z" fill="#FDFDFD"/>
<path transform="translate(1796,595)" d="m0 0h9l-1 7-8 11-14 15-9 10-12 13-39 39-8 7-4 2 6-7 7-7 6-7h2v-2h2l2-4 3-1 2-4 25-25 7-8 8-8 12-17 2-5-13 4-19 9-20 8-20 7-65 16-28 5-27 5-8 2-31 3-12 2-6 4 2-4 7-4 12-2 29-3 44-8 33-7 29-8 29-9 19-7 20-9 16-8z" fill="#FDFDFD"/>
<path transform="translate(752,938)" d="m0 0h34l20 3 10 4 1 3 5 2 5 8 10 24-1 4-8-18-5-7v-2h-2l-5-5-14-7-5-2-6-1h-24l-18 4-18 1 2 10 7 10 11 12 10 8 12 7 14 5h21l20-3 9-4 2-4v9l-2 2-17 2h-40l-11-1-10-7-12-11-11-14-7-12-4-11v-5l9-3z" fill="#FDFDFD"/>
<path transform="translate(810,1625)" d="m0 0h6l-2 2-20 3-46 4-31 4-17 1-91 1-12 1-2 5 3 3 21 7 6 3-2 1-25-7-10-5-6-7v-6l5-1 124-2 45-2 36-3z" fill="#FDFDFD"/>
<path transform="translate(607,192)" d="m0 0 8 1 13 7 10 8 13 11 14 12 24 24 7 8 10 11 7 8 11 14 12 17 15 23 15 25 9 16 18 36 2 3 9-2 20-6 42-11 37-8h6l-4 2-45 10-40 11-16 6-9 1-7-9-14-29-14-24-12-20-8-14-13-19-9-11-14-17-28-30-7-7-8-7-12-11-13-11-13-9-2-1-11-1 11 30 5 12 5 11 16 41 4 13-1 3-14-37-11-26-12-28-8-20v-5z" fill="#FDFDFD"/>
<path transform="translate(1405,596)" d="m0 0h14l21 5 19 9 21 14 7 4 17 3v1h-15l-44-22-18-6-16-2h-7l-14 5-16 8-10 7-9 8v9l5 7 9 7 16 10 12 5 15 5 6 1 18 1 2 2h-17l-18-2-12-4-16-8-12-9-7-8-4-9v-9l6-10 9-8 16-8 16-5z" fill="#FDFDFD"/>
<path transform="translate(1278,771)" d="m0 0h34l18 2 9 3 2 2h11l7-4 7-2h7l5 4 1 5-5 14-7 11-12 16-12 9-10 6-2-1 7-6 6-4 5-6 5-5 9-11 8-14 4-8 1-4-23 4h-16l-15-4-7-1-19-1h-24l-9 3-13 10-5 5-7 10-6 12-5 13-1 8 7 4-2 1-9-4-2-5 4-13 8-16 7-10 8-8 8-6 9-6 6-2z" fill="#FDFDFD"/>
<path transform="translate(1077,771)" d="m0 0 4 1 5 5 7 10 7 8 9 8 12 9 15 14 8 9 6 10 3 6 1 10-2-1-4-9-7-12-13-15-12-10-15-11-7-6-6-10-1-5-5-2-3-1-6 3-3 7-5 18-1 8v22l3 15 5 13 3 9 6 10 10 11 7 8 9 8 9 6-3 1-11-6-14-11-7-7-7-10-9-17-3-10-1-14 1-46 5-13 7-10z" fill="#FDFDFD"/>
<path transform="translate(765,1101)" d="m0 0h7l15 5 12 1h10l20 3 13 5 8 6 8 8 8 16 3 7 2 14v6l-2 2-8 2-18 1h-24l-13-3-16-8-10-8-6-8-9-27-2-9v-10zm2 5-2 6 2 11 7 12 3 8 6 5 5 7 13 10 8 5 7 3 13 2 12-1 28-2 1-4-3-17-8-17-7-8-10-8-4-3-16-3-3-1-24-1-15-1-7-3z" fill="#FDFDFD"/>
<path transform="translate(1586,812)" d="m0 0 2 3 2 6 3 3h-2l3 8 4 16 3 10 6 31 2 11v5h2l4 35v32l-4-1-3-6-1-9-1-13v-12l-2-9v-6l1-5-4-10-2-12-1-7-2-9-4-14-4-21v-15l-2-6z" fill="#AED766"/>
<path transform="translate(1673,1361)" d="m0 0 6 1 25 11 28 13 40 20 30 16 22 12 28 16 28 17 18 11 21 13 9 8 1 5-6 3h-14l-26-5v-1l17 1 9 2h9v-10l-13-8-19-10-14-9-26-15-28-17-22-12-12-7-14-7-22-12-28-13-21-10-15-7-11-5z" fill="#FDFDFD"/>
<path transform="translate(978,1052)" d="m0 0 4 1 7 10 2 6 1 8v26l-2 11-7 18-11 12-13 10-2-1 8-7 12-12 5-7 5-18 1-5v-16l-2-17-1-10h-9l-5 6-17 12-14 10-11 11-8 15-1 1v17l3 19 4 11 3 2h9l-2 2-6 3h-6l-3-5-5-21-2-12v-17l6-11 9-10 11-10 15-11 9-7z" fill="#FDFDFD"/>
<path transform="translate(383,1008)" d="m0 0 6 2 3 6v6l1 1 3 37 1 15v7l2 8 1 12 2 10v7l4 15 3 9 4 21 3 10 5 12v6l-20 12-2-1 14-9 2-2-1-9-6-21-7-26-8-44-2-17-3-54-2-8z" fill="#B5D971"/>
<path transform="translate(1051,937)" d="m0 0 7 6 23 14 12 8 9 7 7 7 8 13 6 14 2 10v12l-2 13-11 25-2 2-8-1-24-11-14-10-11-10-7-8-8-11-8-16-4-13-1-11v-14l2-2 2 21 3 11 7 19 6 10 12 14 8 8 10 6v2l10 3 17 8h7l3-3 4-10 5-24v-18l-5-13-12-16-12-11-30-19-6-4-5-5z" fill="#FDFDFD"/>
<path transform="translate(1009,1066)" d="m0 0 10 4 9 7 5 6 9 6 12 4 17 10 14 9 13 12 6 8 4 8 4 14-1 3-5-13-8-14-9-10-10-7-15-9-28-13-6-4v-2l-16-8-4 2-1 2v24l2 18 5 20 7 14-1 2-6-10-7-14-2-11-1-15v-24l2-17z" fill="#FDFDFD"/>
<path transform="translate(877,1028)" d="m0 0 2 1v7l2 1v8l2 6-3 1v7l2 4-4 6 6 7 5 12 1 15-2 11-4 1 1 8 3 13v7h-2l-2-15-3-8-5-14-3-19v-8l2-12 2-5-1-16-1-12z" fill="#D8A055"/>
<path transform="translate(781,1178)" d="m0 0 5 2 13 8 7 3 15 1 16 7 10 5 13 10 9 10 4 9 1 9-2-3-3-9-7-10-9-9-9-6-12-5-17-3-11-2-9-3-10-2h-2v17l6 18 5 6 3 7 9 11 7 6 3 3 8 4 8 3 7 3-3 1-17-5-10-6-12-11-7-10-5-10-4-16z" fill="#FDFDFD"/>
<path transform="translate(1451,766)" d="m0 0 4 4 9 19 5 10 6 14 4 11 12 35 6 23 4 16 6 38 2 23 1 25v16l-2 38-3 28-2 2 2-31 1-18v-25l-2-48-3-30-4-22-8-32-9-27-13-32-12-26-4-9z" fill="#FDFDFD"/>
<path transform="translate(946,943)" d="m0 0 4 1 3 6 2 10-3-3-1-5-8 4-9 11h-2v2l-11 9-3 1v2l-8 7-10 14-4 9-1 5v11l2 16 3 9 3 5 2 3 9 3-5 4-4 1-4-4-7-14-3-7-2-12v-9l4-17 6-12 12-13 16-12 7-7z" fill="#FDFDFD"/>
<path transform="translate(714,706)" d="m0 0 13 3 20 10 12 9 9 9 7 11 1 4-5-5-8-10v-2l-4-2-14-11-9-6-14-2-4 5 1 9 1 31 2 10 2 7 3 8 2 3 2 11h-4l-7-9-4-7 1-2 1 1-2-11-1-7v-16l1-17-5-16 2-7z" fill="#FDFDFD"/>
<path transform="translate(1794,603)" d="m0 0 1 2-9 14-8 10-11 11v-3l6-7h-6l-2-1v-3l-10-1-11 1-16 8h-9l-9 2 1-2 23-7 21-8 26-12z" fill="#ADD663"/>
<path transform="translate(377,517)" d="m0 0 12 3 30 11 28 12 16 8 23 12 25 15 18 12 8 5 12-12v3l-7 9-4 5-4-1-9-7-12-9-15-8-13-8-40-20-22-10-9-4-8-3-2-2-12-2-6-3v-2l-8-1z" fill="#FDFDFD"/>
<path transform="translate(225,895)" d="m0 0 4 1-48 14-20 7-21 8-9 6v5l10 4 22 4 47 7 5 1v1l-14-1-30-4-39-3-11-2-3-3 1-4 9-8 16-8 21-8 28-9z" fill="#FDFDFD"/>
<path transform="translate(1344,866)" d="m0 0 4 2 1 2v7l-8 24-7 13-8 10-5 5-8 7-15 9-6 2 5-5 12-9 8-7 9-12 8-11 7-12 4-12v-6h-14l-3 1v2l-13 4-16-1-11-2v-1l24-1 12-2z" fill="#FDFDFD"/>
<path transform="translate(266,1525)" d="m0 0h6l7 3 13 1 3 1v3h14l7 3 5 3 9 1 9 3 6-1 13 3 7 2v2l10 1 7 2 13 1 6 2 20 3 11 3-4 1-50-8-52-10-44-10v-2l-10-2-4-2 1-1z" fill="#EDC58B"/>
<path transform="translate(1049,113)" d="m0 0 5 3 7 9 10 23 12 36 10 35 8 32 3 16-1 4-5-18-5-22-6-24-12-36-10-29-4-6-6-7-5-3-5-1 1-8z" fill="#FDFDFD"/>
<path transform="translate(984,494)" d="m0 0h53l36 3 21 1 3 2 8 2 10 3 17 3 10 3v2l10 2 16 4 14 6 9 2h7l-3 3-11-2-52-16-29-7-22-4-28-3-16-1-35-1-18-1z" fill="#D9ECB9"/>
<path transform="translate(461,1305)" d="m0 0 6 2 5 4 4 7v2l4 2 6 9 3 6 8 11 6 8 2 7 11 15 4 6-4-1-7-9-14-20-17-28-8-11-5-4-2-1-26 1-21 3-9 2h-5l3-2 18-4z" fill="#C1DF88"/>
<path transform="translate(503,1360)" d="m0 0 8 6 3 4v2l6 2 3 3h7l1-1h16l14-2 21-7 12-1 6 2-1 2-25 5-48 9h-6l-5-6-12-16z" fill="#B0D86A"/>
<path transform="translate(1323,988)" d="m0 0 5 1 2 3v10l-5 13-10 16-13 15-10 8-4 3-2-1 15-14 9-11 10-15 5-14v-7l-4-2-11 2-7 6-14 1-4-2-8-2v-1l20-1 11-3 11-4z" fill="#FDFDFD"/>
<path transform="translate(662,341)" d="m0 0 2 2 9 29 6 19 3 17 2 5 3 18 1 14v15l-2 6-8 10-4 2 6-8 2-4v-35l-4-28-9-36-7-23z" fill="#FDFDFD"/>
<path transform="translate(1152,400)" d="m0 0 9 1 30 8 36 12 23 8 17 8 8 7 1 3-4 6-2 1-2-10-4-4-9-5-12-3-24-10-9-4-21-7-9-2-13-4-15-4z" fill="#FDFDFD"/>
<path transform="translate(1585,780)" d="m0 0 2 1-5 3 1 5 7 19 8 29 9 40 3 19v9h-1l-6-31-4-19-5-17-2-8-1-6 1-1-4-4-7-20-3-9v-5l5-4z" fill="#FDFDFD"/>
<path transform="translate(154,1493)" d="m0 0 9 2 12 3 5 3 20 5 7 4 13 4h7l9 3 1 1 6 1v2l15 4h8l6 2v2l7 1 3 1v2l-8-1-28-7-36-11-45-15-11-4z" fill="#FCFCFA"/>
<path transform="translate(1573,1528)" d="m0 0 8 1 32 10 33 13 29 13 24 11 19 10 18 10-2 1-44-22-31-14-23-10-15-6-25-9-11-3-12-4z" fill="#FDFDFD"/>
<path transform="translate(982,1593)" d="m0 0 4 1-30 8-16 3-26 6-7 2-19 3-12 3-20 3h-13v-1l22-4 46-9 43-9z" fill="#FDFDFD"/>
<path transform="translate(1022,285)" d="m0 0h2l-1 9-6 18-2 10-9 25-11 24-6 10-5 3h-43v-1l26-3 15-1 7-3 9-17 13-36 7-23z" fill="#FDFDFD"/>
<path transform="translate(814,526)" d="m0 0 1 2-28 13-16 8-19 10-19 12-12 8-8 6-2-1 6-6h2v-2l4-2 3-5 10-3 7-4 5-5 6-2v-2h2v-2l16-7 6-2 4-1v-2l16-6 10-5z" fill="#ADD765"/>
<path transform="translate(1507,632)" d="m0 0 7 1 6 4-1 4-5 6-17 13-18 11-11 3h-5l3-2 15-6 14-10 8-8 5-4 1-9z" fill="#FDFDFD"/>
<path transform="translate(1588,1467)" d="m0 0h27l54 3 69 8 3 2h-9l-68-7-76-5z" fill="#FDFDFD"/>
<path transform="translate(1295,1093)" d="m0 0h5l2 2v13l-5 24-6 18-7 12-13 16-10 9-5 2 6-7 14-14 7-10 8-16 6-21 2-10v-8l-3-4h-6l-4 1 5-5z" fill="#FDFDFD"/>
<path transform="translate(518,1148)" d="m0 0 2 3 9 25 12 28 15 33 12 22-1 2-4-6v-2l-3-1-6-8-2-8-5-9-2-8-9-19-5-12v-2h-2l-7-18-4-16z" fill="#FDFDFD"/>
<path transform="translate(682,1673)" d="m0 0 7 1v2l3-1 4 3 16 2 3 1v2l6-1 9 3 10 4 3 1v2l-23-4-25-6-18-5 3-3z" fill="#EEC48A"/>
<path transform="translate(268,499)" d="m0 0h9v1l-5 1v7l5 5 8 7 11 8 10 7 10 6 7 7 14 10 8 7h-3l-17-13-18-13-14-10-16-11-10-9-4-4 1-5z" fill="#FDFDFD"/>
<path transform="translate(1045,139)" d="m0 0 2 3v8l-3 19-3 27-3 17-4 25-5 26-3 16-3 3 5-27 7-41 7-50 2-21z" fill="#FDFDFD"/>
<path transform="translate(943,1201)" d="m0 0 2 1-8 9-9 18-1 11v11l1 12 2 5 7 1v1h-10l-3-4-2-13v-19l4-10 11-17z" fill="#FDFDFD"/>
<path transform="translate(345,566)" d="m0 0 4 2 11 8 7 7 9 7 10 9v2h2v2l4 2 9 10 10 10 7 8 9 11 9 13-1 2-13-16-9-11-10-11-7-8-19-19-8-7-13-11-10-8z" fill="#FDFDFD"/>
<path transform="translate(344,1542)" d="m0 0 12 2 9 3v2l10 1 7 2 13 1 6 2 20 3 11 3-4 1-50-8-37-7v-3z" fill="#EDBC7B"/>
<path transform="translate(1633,649)" d="m0 0m-6 1h6v2l-31 6-8 2-31 3-12 2-6 4 2-4 7-4 12-2 29-3z" fill="#FBFCFA"/>
<path transform="translate(1768,1031)" d="m0 0 12 1 82 11v1h-9l-7-1-32-2-24-4-21-4z" fill="#FDFDFD"/>
<path transform="translate(575,729)" d="m0 0v3l-16 27-9 17-13 30-11 29-2 5-1-4 11-31 12-26 8-17 9-15 11-17z" fill="#FDFDFD"/>
<path transform="translate(427,644)" d="m0 0 10 6-1 4h2l8 10 6 12 10 19 4 6v5l-2-4-3-3h-2l-3-8-6-12-8-12-5-5-4-8-6-8z" fill="#AED766"/>
<path transform="translate(1500,1305)" d="m0 0 12 2 39 10 30 9 32 11 13 5-3 1-29-10-16-5-19-6-22-6-9-2-18-5-10-3z" fill="#FDFDFD"/>
<path transform="translate(461,1305)" d="m0 0 6 2 5 4 9 16-1 2-10-14-5-4-2-1-26 1-21 3-9 2h-5l3-2 18-4z" fill="#FDFDFD"/>
<path transform="translate(438,662)" d="m0 0 5 5 11 17 5 11v4l3-1 3 4-1 5-3 3-2 8-6 9-7 13-1-2 9-19 3-8v-13l-5-12-11-18-3-4z" fill="#FDFDFD"/>
<path transform="translate(1e3 491)" d="m0 0 30 1 32 3 9 2-4 1-32-3h-53l-4 1h-11l3-3z" fill="#ADD764"/>
<path transform="translate(197,1504)" d="m0 0 10 2 13 4 17 6 8 2 7 2 2-1 2 1v2l9 2-3 2-7-1-15-4-1-1-6-1 1-2-9-2-8-1-12-4-5-3-3-1z" fill="#EBB368"/>
<path transform="translate(1040,916)" d="m0 0 5 1 3 5 1 3v7l-5-5-7-1-5 5-3 7-2 16h-1v-17l5-12 7-8z" fill="#FDFDFD"/>
<path transform="translate(245,1334)" d="m0 0v3l-8 10-12 16-6 9-3 5-1 5 8-2h5l-3 2-13 3-2-1 1-7 11-16 9-11 12-14z" fill="#FCFCFC"/>
<path transform="translate(916,1253)" d="m0 0h1l1 17 1 46v23h-1l-1-8-2-45-1-15v-15h2z" fill="#EBB368"/>
<path transform="translate(1615,949)" d="m0 0h1l4 27 6 7 25 12 5 2-2 3-24-11-5-4-5-3-4-5-2-8z" fill="#FDFDFD"/>
<path transform="translate(1227,890)" d="m0 0 2 1-8 9-11 21-5 14-1 9h-1l-1-9 3-15 6-12 9-12z" fill="#FDFDFD"/>
<path transform="translate(655,733)" d="m0 0 11 1 10 3 10 5 12 10 11 14 4 7-1 2-9-12-9-11-16-10-10-3-9-4z" fill="#FDFDFD"/>
<path transform="translate(1154,863)" d="m0 0h1v22l-4 18-6 16-3 5-2 1h-8l-8-3 4-1 11 1 7-14 6-25 1-5z" fill="#FDFDFD"/>
<path transform="translate(956,965)" d="m0 0 2 3 4 15 1 5v15l-4 14-7 14-8 10-7 7-5 2 5-5 9-10 7-11 6-16 2-11-2-15-3-12z" fill="#FDFDFD"/>
<path transform="translate(1125,509)" d="m0 0 8 1 24 6 13 4 12 5 9 2h7l-3 3-11-2-52-16-7-2z" fill="#FDFDFD"/>
<path transform="translate(1583,1206)" d="m0 0 1 2-18 46-8 17-6 9-4 2-3-1 1-2 4-1 6-9 11-25 6-15 9-22z" fill="#FDFDFD"/>
<path transform="translate(219,952)" d="m0 0 10 1 4 1h14l12 3 3 2v2l7 1-1 2-28-6-25-4z" fill="#B7DC78"/>
<path transform="translate(1189,1145)" d="m0 0 1 2-8 16-3 17-1 23h-1l-2-18v-14l4-10z" fill="#FDFDFD"/>
<path transform="translate(433,1304)" d="m0 0h31l2 2-13 1-36 5-6 1 1-2 11-2v-2l7-1h3z" fill="#ACD663"/>
<path transform="translate(799,910)" d="m0 0 2 1-11 9-12 6-7 2h-26v-1l19-1 13-4 17-9z" fill="#FDFDFD"/>
<path transform="translate(1612,1110)" d="m0 0 3 1h34v1l-35 3-6 2-6 28h-1v-9l2-12 3-9z" fill="#FDFDFD"/>
<path transform="translate(590,1294)" d="m0 0 5 5 9 12 8 10 9 10 7 7 7 10-1 2-11-13-12-13-10-12-11-16z" fill="#FDFDFD"/>
<path transform="translate(1656,998)" d="m0 0 9 3 37 14v2l-6-1-9-3-13-5-16-6-2-1z" fill="#FDFDFD"/>
<path transform="translate(1331,1514)" d="m0 0h9v1l-24 4-9 1-14 2-12 1 1-2 30-5z" fill="#EBB368"/>
<path transform="translate(706,587)" d="m0 0 2 1-14 11-16 13-9 8-2-2 6-5 1-2h2v-2l5-2v-2l5-5 6-4 9-5z" fill="#B2D96E"/>
<path transform="translate(661,486)" d="m0 0 2 1-5 6-6 4h-2l-1 3-6 4-7 4h-2l-1 3-4 1 4-6 15-11 12-8z" fill="#B3DA70"/>
<path transform="translate(617,670)" d="m0 0v3l-12 16-14 19-10 15-2 1 2-5 10-15 9-12 8-12z" fill="#FDFDFD"/>
<path transform="translate(378,1552)" d="m0 0 17 1 6 2 20 3 11 3-4 1-50-8z" fill="#EFC389"/>
<path transform="translate(1272,1107)" d="m0 0 3 1-9 4-18 4-14 2h-5l3-2 25-6z" fill="#FDFDFD"/>
<path transform="translate(998,1163)" d="m0 0 3 3 1 4v12h-1l-2-7v-6l-16 10-2-1 10-9z" fill="#FDFDFD"/>
<path transform="translate(1703,1016)" d="m0 0 11 3 26 6 27 5v1h-9l-16-3-38-9z" fill="#FDFDFD"/>
<path transform="translate(1114,354)" d="m0 0h1l1 24 1 10 4 4 8 2v1h-8-3l-3-5-2-10v-24z" fill="#AFD868"/>
<path transform="translate(1880,1046)" d="m0 0 9 2 2 3-8 6-9 4 2-4 3-4z" fill="#FDFDFD"/>
<path transform="translate(1254,469)" d="m0 0 2 1-9 9-7 8-12 12-7 8-2 1 2-4 8-9 7-8 9-10 8-7z" fill="#FDFDFD"/>
<path transform="translate(547,1223)" d="m0 0 2 3 3 6 3 3 10 19 3 5-1 2-4-6v-2l-3-1-6-8-2-8-5-9z" fill="#C6E293"/>
<path transform="translate(1702,704)" d="m0 0 2 1-10 9-17 13-8 6-2-1 10-8 5-5 16-12z" fill="#FDFDFD"/>
<path transform="translate(411,1171)" d="m0 0 3 4 5 9 1 8-10 7-9 5-2-1 14-9 2-2-1-9-3-9z" fill="#FDFDFD"/>
<path transform="translate(748,1691)" d="m0 0 26 3 21 5v1l-13-1-36-6z" fill="#EBB66E"/>
<path transform="translate(1771,1616)" d="m0 0 5 3 3 6-5 3h-9z" fill="#FDFDFD"/>
<path transform="translate(1e3 1187)" d="m0 0h1v17l-2 17-4 10-4 7-1-2 4-8 4-18 1-21z" fill="#FDFDFD"/>
<path transform="translate(236,1516)" d="m0 0 9 2 7 2 2-1 2 1v2l9 2-3 2-7-1-15-4-1-1-6-1 3-1z" fill="#E3B767"/>
<path transform="translate(814,526)" d="m0 0 1 2-28 13-8 4-3-1 4-3h2v-2l16-6 10-5z" fill="#ADD764"/>
<path transform="translate(319,1539)" d="m0 0h8l4 2 8 2 2 1v2l-10-1-19-4v-1z" fill="#F0D3A6"/>
<path transform="translate(340,508)" d="m0 0 10 1 20 5 6 2v1h-11l-8-3v-2h-9l-8-3z" fill="#FDFDFD"/>
<path transform="translate(497,1355)" d="m0 0 5 4 14 19 4 6-4-1-7-9-12-17z" fill="#FDFDFD"/>
<path transform="translate(736,566)" d="m0 0m-2 1h2l-1 3-14 9-8 6-2-1 6-6h2v-2l4-2 3-5z" fill="#AFD767"/>
<path transform="translate(503,1091)" d="m0 0h2l6 29 1 7h-2l-5-19-2-10-1-6z" fill="#B8DC7A"/>
<path transform="translate(518,1148)" d="m0 0 2 3 6 17 3 12 1 6-2-2-6-16-4-16z" fill="#AFD868"/>
<path transform="translate(913,947)" d="m0 0 1 2-7 11-9 10-5 4-2-1 10-10 10-13z" fill="#FDFDFD"/>
<path transform="translate(404,852)" d="m0 0h1l-1 9-4 22-2 3h-5l3-3z" fill="#FDFDFD"/>
<path transform="translate(1115,709)" d="m0 0h1l1 20v14h-1l-2-12v-18z" fill="#FDFDFD"/>
<path transform="translate(1193,1030)" d="m0 0 1 2-7 20-1 7h-1v-10l4-13z" fill="#FDFDFD"/>
<path transform="translate(635,731)" d="m0 0 18 1v2h-25l-7 2-4-1 8-3z" fill="#FDFDFD"/>
<path transform="translate(1734,627)" d="m0 0m-3 1h3v3l-6 3h-9l-9 2 1-2z" fill="#ABD561"/>
<path transform="translate(1191,1070)" d="m0 0 9 2 21 3v1h-17l-10-3z" fill="#FDFDFD"/>
<path transform="translate(1235,843)" d="m0 0 10 2 19 5v1h-7l-15-4-7-3z" fill="#FDFDFD"/>
<path transform="translate(737,319)" d="m0 0 4 4 4 7-1 2-1-3h-2l-1 2-3-4v-2h-3l-1-3h3z" fill="#ABD460"/>
<path transform="translate(1258,876)" d="m0 0h5l-4 2-12 4-5 3-5 2-3-1 16-8z" fill="#FDFDFD"/>
<path transform="translate(403,1556)" d="m0 0 14 1 15 4-4 1-25-4z" fill="#EBB368"/>
<path transform="translate(1473,728)" d="m0 0 2 1-21 14-2-1 7-6z" fill="#FDFDFD"/>
<path transform="translate(273,964)" d="m0 0h13l3 1v2h3v2l-8-1-11-3z" fill="#B2D96E"/>
<path transform="translate(579,1278)" d="m0 0 4 4 7 10-1 2-6-5-4-7z" fill="#DCEAB9"/>
<path transform="translate(679,607)" d="m0 0 4 1-11 9-4 3v-3l5-4 1-2h2v-2z" fill="#C8E398"/>
<path transform="translate(666,237)" d="m0 0 5 3 15 15-1 2-15-15-4-3z" fill="#ADD764"/>
<path transform="translate(464,706)" d="m0 0v3l-3 9-4 6h-2l6-15z" fill="#ADD764"/>
<path transform="translate(972,493)" d="m0 0h12v2l-4 1h-11z" fill="#C4E291"/>
<path transform="translate(266,1525)" d="m0 0h6l7 3v3l-7-1-4-2 1-1z" fill="#E0C77F"/>
<path transform="translate(814,526)" d="m0 0 1 2-16 7 2-4z" fill="#B8DC7A"/>
<path transform="translate(318,504)" d="m0 0 9 1 11 2v1h-12l-8-3z" fill="#FDFDFD"/>
<path transform="translate(773,380)" d="m0 0 3 3 6 12-1 2-4-5-3-5z" fill="#ADD562"/>
<path transform="translate(518,1148)" d="m0 0 2 3 5 14-1 3-3-5-3-11z" fill="#FBF8F3"/>
<path transform="translate(512,1127)" d="m0 0 2 4 4 15h-2l-3-7z" fill="#D6EAB2"/>
<path transform="translate(219,952)" d="m0 0 10 1 3 1v2l-17-2z" fill="#CBE59F"/>
<path transform="translate(615,737)" d="m0 0 1 2 1 9 1 5-3-3-3-9z" fill="#FDFDFD"/>
<path transform="translate(1116,388)" d="m0 0 5 4 8 2v1h-8-3l-2-2z" fill="#DAECBA"/>
<path transform="translate(333,1542)" d="m0 0 6 1 2 1v2l-10-1 2-1z" fill="#F1CFA1"/>
<path transform="translate(888,983)" d="m0 0 2 1-3 6-1-4z" fill="#FDFDFD"/>
<path transform="translate(833,1013)" d="m0 0 4 4-4 1z" fill="#FDFDFD"/>
<path transform="translate(886,994)" d="m0 0 1 3-3 3 1-5z" fill="#FDFDFD"/>
<path transform="translate(777,1169)" d="m0 0 3 1 1 3-4-2z" fill="#FDFDFD"/>
<path transform="translate(799,924)" d="m0 0 2 3-5 1z" fill="#FDFDFD"/>
<path transform="translate(885,990)" d="m0 0" fill="#FDFDFD"/>
<path transform="translate(781,1173)" d="m0 0" fill="#FDFDFD"/>
</svg>
